<svg width="604" height="249" viewBox="0 0 604 249" fill="none" xmlns="http://www.w3.org/2000/svg">
<mask id="mask0_2541_36" style="mask-type:alpha" maskUnits="userSpaceOnUse" x="0" y="25" width="222" height="224">
<path d="M105.315 239.55C105.315 259.882 210.325 239.55 189.992 239.55C169.66 239.55 153.177 223.067 153.177 202.735C153.177 182.402 169.66 165.92 189.992 165.92C203.619 165.92 215.517 173.323 221.882 184.327C223.195 186.596 203.71 66.6434 210.005 26.0248C211.086 19.0517 -52.9897 116.222 9.596 141.992C29.6709 132.951 40.8885 210.1 105.315 239.55Z" fill="#6DED02"/>
</mask>
<g mask="url(#mask0_2541_36)">
<path d="M57.4552 143.7C47.6379 138.032 47.6379 123.862 57.4553 118.194L181.706 46.4579C191.524 40.7898 203.795 47.8749 203.795 59.211L203.795 202.684C203.795 214.02 191.524 221.105 181.706 215.437L57.4552 143.7Z" fill="url(#paint0_linear_2541_36)"/>
</g>
<rect x="33.635" y="89.5515" width="151.314" height="22.0891" rx="11.0445" transform="rotate(-30.217 33.635 89.5515)" fill="url(#paint1_linear_2541_36)"/>
<rect x="36.1191" y="47.3911" width="94.1654" height="22.0891" rx="11.0445" transform="rotate(-30.217 36.1191 47.3911)" fill="url(#paint2_linear_2541_36)"/>
<circle cx="188.282" cy="200.673" r="16.5668" fill="url(#paint3_linear_2541_36)"/>
<path d="M265.972 82.2613C269.677 82.2613 273.121 82.6375 276.305 83.3901C279.547 84.1426 282.326 85.0399 284.641 86.0819C287.015 87.1239 288.693 88.0501 289.678 88.8606L283.686 98.4122C282.528 97.3702 280.444 96.2124 277.434 94.9388C274.424 93.6074 271.066 92.9417 267.362 92.9417C263.309 92.9417 259.865 93.7521 257.028 95.373C254.192 96.936 252.774 99.2226 252.774 102.233C252.774 105.243 254.221 107.645 257.115 109.44C260.068 111.177 264.004 112.624 268.925 113.782C272.861 114.708 276.537 115.952 279.952 117.515C283.426 119.078 286.233 121.249 288.375 124.028C290.517 126.749 291.588 130.396 291.588 134.969C291.588 139.137 290.72 142.697 288.983 145.649C287.246 148.544 284.902 150.888 281.949 152.683C278.997 154.419 275.697 155.693 272.05 156.503C268.404 157.314 264.699 157.719 260.936 157.719C256.536 157.719 252.571 157.256 249.04 156.33C245.509 155.461 242.527 154.419 240.096 153.204C237.723 151.93 235.986 150.83 234.886 149.904L240.878 139.137C242.383 140.584 244.843 142.118 248.258 143.739C251.732 145.36 255.668 146.17 260.068 146.17C264.93 146.17 268.867 145.157 271.877 143.131C274.887 141.047 276.392 138.355 276.392 135.056C276.392 132.566 275.669 130.569 274.221 129.064C272.774 127.559 270.835 126.343 268.404 125.417C265.972 124.491 263.309 123.681 260.415 122.986C257.636 122.349 254.915 121.51 252.253 120.468C249.648 119.426 247.245 118.094 245.045 116.473C242.904 114.795 241.196 112.769 239.922 110.395C238.649 107.964 238.012 105.127 238.012 101.885C238.012 97.7754 239.315 94.2731 241.919 91.3787C244.524 88.4264 247.94 86.1687 252.166 84.6057C256.392 83.0428 260.994 82.2613 265.972 82.2613ZM324.384 191.757H309.361V84.3452H324.644V97.7175C325.165 95.923 326.612 93.81 328.986 91.3787C331.359 88.9474 334.543 86.8345 338.537 85.0399C342.59 83.1875 347.221 82.2613 352.431 82.2613C359.03 82.2613 364.877 83.8532 369.971 87.0371C375.123 90.163 379.146 94.5626 382.041 100.236C384.993 105.851 386.469 112.45 386.469 120.034C386.469 127.617 384.964 134.245 381.954 139.918C378.944 145.533 374.833 149.904 369.623 153.03C364.471 156.156 358.567 157.719 351.91 157.719C346.526 157.719 341.808 156.706 337.756 154.68C333.762 152.654 330.607 150.367 328.291 147.82C326.033 145.273 324.731 143.247 324.384 141.742V191.757ZM371.534 120.034C371.534 114.881 370.463 110.424 368.321 106.661C366.237 102.899 363.458 99.9752 359.985 97.8912C356.512 95.8072 352.749 94.7652 348.697 94.7652C344.239 94.7652 340.187 95.8361 336.54 97.978C332.893 100.062 329.999 103.014 327.857 106.835C325.715 110.598 324.644 114.997 324.644 120.034C324.644 125.07 325.715 129.498 327.857 133.319C329.999 137.082 332.893 140.005 336.54 142.089C340.187 144.173 344.239 145.215 348.697 145.215C352.749 145.215 356.512 144.202 359.985 142.176C363.458 140.092 366.237 137.169 368.321 133.406C370.463 129.643 371.534 125.186 371.534 120.034ZM417.926 155.635H402.73V36.153H417.926V155.635ZM496.999 155.635V141.742C496.536 143.189 495.176 145.186 492.918 147.733C490.718 150.28 487.679 152.596 483.801 154.68C479.98 156.706 475.465 157.719 470.255 157.719C463.655 157.719 457.664 156.156 452.28 153.03C446.954 149.904 442.7 145.533 439.516 139.918C436.39 134.245 434.827 127.617 434.827 120.034C434.827 112.45 436.39 105.851 439.516 100.236C442.7 94.5626 446.954 90.163 452.28 87.0371C457.664 83.8532 463.655 82.2613 470.255 82.2613C475.407 82.2613 479.864 83.1875 483.627 85.0399C487.448 86.8923 490.487 89.0342 492.744 91.4655C495.06 93.8969 496.42 95.9808 496.825 97.7175V84.3452H511.761V155.635H496.999ZM449.762 120.034C449.762 125.186 450.891 129.643 453.149 133.406C455.406 137.169 458.33 140.092 461.919 142.176C465.566 144.202 469.444 145.215 473.554 145.215C477.954 145.215 481.89 144.173 485.364 142.089C488.837 140.005 491.587 137.082 493.613 133.319C495.639 129.498 496.652 125.07 496.652 120.034C496.652 114.997 495.639 110.598 493.613 106.835C491.587 103.014 488.837 100.062 485.364 97.978C481.89 95.8361 477.954 94.7652 473.554 94.7652C469.444 94.7652 465.566 95.8072 461.919 97.8912C458.33 99.9752 455.406 102.899 453.149 106.661C450.891 110.424 449.762 114.881 449.762 120.034ZM561.559 141.829L585.612 84.3452H600.721L552.616 191.757H537.333L553.484 155.635L524.134 84.3452H539.504L561.559 141.829Z" fill="url(#paint4_linear_2541_36)"/>
<defs>
<linearGradient id="paint0_linear_2541_36" x1="179.681" y1="176.141" x2="94.7088" y2="44.2567" gradientUnits="userSpaceOnUse">
<stop offset="0.0001" stop-color="#FF6344"/>
<stop offset="1" stop-color="#FE3124"/>
</linearGradient>
<linearGradient id="paint1_linear_2541_36" x1="183.827" y1="98.9999" x2="169.943" y2="142.689" gradientUnits="userSpaceOnUse">
<stop offset="0.0001" stop-color="#FF6344"/>
<stop offset="1" stop-color="#FE3124"/>
</linearGradient>
<linearGradient id="paint2_linear_2541_36" x1="36.5167" y1="59.3597" x2="58.0953" y2="20.5464" gradientUnits="userSpaceOnUse">
<stop offset="0.0001" stop-color="#FF6344"/>
<stop offset="1" stop-color="#FE3124"/>
</linearGradient>
<linearGradient id="paint3_linear_2541_36" x1="178.796" y1="186.762" x2="195.614" y2="215.086" gradientUnits="userSpaceOnUse">
<stop stop-color="#102128"/>
<stop offset="1" stop-color="#2B5262"/>
</linearGradient>
<linearGradient id="paint4_linear_2541_36" x1="309.825" y1="46.4577" x2="354.071" y2="220.183" gradientUnits="userSpaceOnUse">
<stop stop-color="#102128"/>
<stop offset="1" stop-color="#2B5262"/>
</linearGradient>
</defs>
</svg>
